/* XPM */
static char *c36dec67e8b34466b9fbafde5a76272aFp36ib7uUT9MdyGu[] = {
/* columns rows colors chars-per-pixel */
"64 64 8 1 ",
"  c None",
". c #8C7F2F",
"X c #BC6628",
"o c #E07528",
"O c #A69637",
"+ c #B7A747",
"@ c #BCB067",
"# c #C4B244",
/* pixels */
"                                                                ",
"                                                                ",
"                                                                ",
"                                                                ",
"                                                                ",
"                                                                ",
"                                                                ",
"                                                                ",
"                                                                ",
"                                                                ",
"                                                                ",
"                                                                ",
"                                                                ",
"                                                                ",
"                                                                ",
"                                                                ",
"                                                                ",
"                                                                ",
"                                                                ",
"                            ###@                                ",
"                           ####@@@@                             ",
"                           OO####@@                             ",
"                            OOO###                              ",
"                             oooooo                             ",
"                             XXXXXoo                            ",
"                           ##OOOOX#oo                           ",
"                          ######OXX#o                           ",
"                         #######OOX#o                           ",
"                        #########OX#@@                          ",
"                        O########O##@@                          ",
"                       .O###########@@@                         ",
"                       .O###########@@@                         ",
"                       .O############@@                         ",
"                       .O############@@                         ",
"                       .O+###########@@                         ",
"                      ..O+#+##########@@                        ",
"                      .OO+#+##########@@                        ",
"                     ..O#+#++#########@@#                       ",
"                     ..O#++#++########@##                       ",
"                     ..OO##+#+++#########                       ",
"                     ..OOO#++############                       ",
"                       ..OOO++++++#####                         ",
"                        ........######                          ",
"                              ..                                ",
"                                                                ",
"                                                                ",
"                                                                ",
"                                                                ",
"                                                                ",
"                                                                ",
"                                                                ",
"                                                                ",
"                                                                ",
"                                                                ",
"                                                                ",
"                                                                ",
"                                                                ",
"                                                                ",
"                                                                ",
"                                                                ",
"                                                                ",
"                                                                ",
"                                                                ",
"                                                                "
};
