/* XPM */
static char *_53b5afaf56947169a8d46eb3be5a379I5byt4SdAM6QEQOd[] = {
/* columns rows colors chars-per-pixel */
"64 64 4 1 ",
"  c None",
". c #B771E8",
"X c #71E8A4",
"o c #71D9E8",
/* pixels */
"                                                                ",
"                                                                ",
"                                                                ",
"                                                                ",
"                         oooo                                   ",
"                         o                           oo         ",
"                                       ...........    oo        ",
"                                     ...               o        ",
"                                    ..  .......                 ",
"                       ....       ..  ...ooooo...               ",
"                     ...         .......oooooooo..              ",
"                   ..           ....oooooooooooooo.             ",
"                  .o..         ...ooo........ooooo..            ",
"                .....          ..ooo..    .....oooo..           ",
"               ....           ..oXX..         ..oooo.           ",
"               ...            .oXX..           ..ooo..          ",
"              ..o..           .oX..            ..oooo.          ",
"              ..o..           .oX.             ..oooo.          ",
"         o    ..o...          .oX.             ..oXo...         ",
"         o   ..oo...          .oX.             ..oooo..         ",
"        o    ..oo...          .oo.             ...oX...         ",
"        o    ..oo....         .oo.             ...oo...         ",
"        oo   ..ooX...          .o.             ...oo....        ",
"             ..ooX...          ...             ...ooo...        ",
"             ..ooXo...          ..             ...oXoo..        ",
"             ..ooXo...  oo       ..           ....oXo. .  o     ",
"             ..ooXX...   o        ...         ....oXo. .  oo    ",
"             ..ooXX....            ..         ....oXo. .   o    ",
"             ..oo.XX.o..                      ....oX.. .   o    ",
"              .ooXXX.oo..                     ...ooo.o .        ",
"              .ooXXXX.o..                     ..ooo..  .        ",
"              .oooXXXo.o..                   ...ooo.   .        ",
"              ...oXXXo.o...                  ..o.oo.   .        ",
"              ...ooX.Xooo...                ...ooo.   ..        ",
"            .  ..ooXXXXooo..               ...o.oo.   .         ",
"            .. ...ooXXXooo....            ..oo..o..  ..         ",
"             . ...ooXXXXoooo....         ......oo.   .          ",
"              . ..oooXXXXoooo.....     ....ooooo..   .          ",
"               ...ooooXXXXooooo...........oooooo.   .           ",
"               . ..ooooXXXXoo.oooooo...oooo.oo...   .           ",
"                . ..oooooXXXoooooo.ooooo...oo...                ",
"                .  ..oooooXXXXoooooooooooooo...                 ",
"                 .  ..oooooXXXXXoooooooooo...                   ",
"                  ..  ...ooooXXXXXXXXXX.....      o             ",
"                    ......ooooooooo....o..       o              ",
"                      ..............   ..        o              ",
"                         ........     ..                        ",
"                                 .....                          ",
"                               ..                               ",
"                   o          ..                                ",
"                   oo                                           ",
"                    ooooo                                       ",
"                                                                ",
"                                                                ",
"                                                                ",
"                                                                ",
"                                                                ",
"                                                                ",
"                                                                ",
"                                                                ",
"                                                                ",
"                                                                ",
"                                                                ",
"                                                                "
};
