/* XPM */
static char *c042fc2a5cae404fbb181650507c8a89e55lx5hBVu5vyTxs[] = {
/* columns rows colors chars-per-pixel */
"64 64 26 1 ",
"  c None",
". c #1B1818",
"X c #372828",
"o c #373030",
"O c #463939",
"+ c #615959",
"@ c #6E6A6A",
"# c #A8172D",
"$ c #867D23",
"% c #C2790D",
"& c #E23C55",
"* c #D98C2E",
"= c #D7C83A",
"- c #46AA8D",
"; c #BC8586",
": c #A49D9D",
"> c #A89A9A",
", c #BBA9A9",
"< c #D59091",
"1 c #CFA5A5",
"2 c #D6A3A3",
"3 c #E0B2B3",
"4 c #F1E788",
"5 c #8CE6CC",
"6 c #C8C3C3",
"7 c #F5F1F1",
/* pixels */
"                                                                ",
"                                                                ",
"                                                                ",
"                                                                ",
"                                                                ",
"                                                                ",
"                                                                ",
"                                                                ",
"                                                                ",
"                              @@@@>>>>>>>>                      ",
"                              :66666676777                      ",
"                            :@:66666666677                      ",
"                            :@:66666666667                      ",
"                          :66@:66666666676                      ",
"                          :66+:66666666666                      ",
"                          ::++@@6666666666                      ",
"                          +++:6@@@@@@6@66>                      ",
"                          111:611111@6666>                      ",
"                          111:611111@6:6@@                      ",
"                         31-5611-511@666@                       ",
"                         33--121--11@6:@@                       ",
"                         33333233111@66@                        ",
"                         3333;;;3311@@@@                        ",
"                           Xo333331ooo                          ",
"                         $$=Xooooooo44                          ",
"                        $$==Xooooo===444                        ",
"                        $====oooo======4                        ",
"                        XO====oo====XXX=                        ",
"                        XO====o=====XXOO                        ",
"                        XO=.=%..=.==XXOO                        ",
"                        XO==.=...===XXOO                        ",
"                        XO=.......==XOOO                        ",
"                        XO==.....===XOOO                        ",
"                        <<=.=...=.==XOOO                        ",
"                        <=====.====XXOOO                        ",
"                        $,,==,====,<XOOO                        ",
"                  @@@@@@@@@@@@@@@@@<<3O***                      ",
"                 @@@@@@@@@@@@@@@@@@<<3****                      ",
"                        $#&&&&&##&&=*==4                        ",
"                        ##&&&&&##&&=*=                          ",
"                        ##&&&&&##&&&==                          ",
"                        ##&&&&###&&&==                          ",
"                        ##&&&&###&&&&&                          ",
"                        OOO@@@  OO@@@@                          ",
"                        OOO@@@  OOOO@@                          ",
"                                                                ",
"                                                                ",
"                                                                ",
"                                                                ",
"                                                                ",
"                                                                ",
"                                                                ",
"                                                                ",
"                                                                ",
"                                                                ",
"                                                                ",
"                                                                ",
"                                                                ",
"                                                                ",
"                                                                ",
"                                                                ",
"                                                                ",
"                                                                ",
"                                                                "
};
