/* XPM */
static char *result[] = {
/* columns rows colors chars-per-pixel */
"64 64 11 1 ",
"  c #1D261D",
". c #2E432E",
"X c #3B4F3B",
"o c #375037",
"O c #7A5C45",
"+ c #496149",
"@ c #4D624D",
"# c #467A45",
"$ c #7A7645",
"% c #72457A",
"& c #646B64",
/* pixels */
"+....++#@@@@@@&&# & #& +#++++.........+++++++++++++++& +  #   ++",
"+....++#@@@@@@@@&#  #  #+++++....#....+#+++++++++++++  #+ #   ++",
"+....++@@@@@@@       ## +++++....#....+#+++++++ooooo+  # ##  +++",
"+.#..++@@$@@@@ ######   +++++.XXX#XXXX#XX++++ooo#ooo@  ###   @@+",
"++#+++  o$oooo      ######XXX$XXXXXXXXXX$oooooo#oooo### #    @@+",
"++#+++  oo$ooo        # XX#XX$XXXXXXXXXX$oooooo#ooo##        @@+",
"++O#++   #oooo++++++++#+XXXXX$XXXXXXXXXXXoo#oooooo@@@    @@@#@@+",
"+OOO+++& #oo  +++++$+++#XXXX$XX&  +++++++oo##ooo++++........#.++",
".OOO..#&  #&  .  ..$...#+++++++&  ooooooo@@@#+++$+++..$....#....",
"..$...#.& #&#..& .$$...#++++& o&  ooo#o$o@@@++++$+++..$....#....",
"..$..##XX&# ## &#X$X...#++oo& o&  ooo#$oo@@@+++++XX  X$X...#....",
"..$..XXXX &# # ##X&  ..+@& o&&o&  ooo#$Oo@@@  +++XX& $XX#XXXXXX.",
"+++#+XXXX && #&#XX&  @@$@& o &o& ooo..OOO++&  +++X&  $XX#XXXX$X+",
"+++#+XXXXX & X&#X&  #@@$@&&o &&##  ..XOOO@@&  +++X& X$XXXX#XX$X+",
"+@@#@@@#@   & & &   #@@$o &   ##   XXXX#@@@@&  oo & +$XXXX#XXXX+",
"@@@#@@ #            #@@ooo  ##     XXXX#@@@@o& oo& o++++++#++  @",
"@@@@@@  #           #@+oo###    XXXXXX@#@@ooo& oo& o++#++++++  @",
"@@@ooo  #      $   ##oooo#   o+.XXXXX@@#ooooo &oo& o++#+ooooo& @",
"@@@ooo  #   #oo$ooooooo+oooooo++XX@@@oo#ooo####o&  +++#+ooooo& @",
".  ooooo#ooo#oo$ooooooo@oooooo@@@@@o$oooooooo  #    @@#@ooooo&  ",
".&  oooo#ooo#ooooo&oooo@@ooooo@@$@@o$oooooooo  &##  @@#@ooooo@& ",
"..& .....+@#@ooooo&o@#@@@@@@@@@@$@@o$oooooo@@@ &    @@#@@@@@@@& ",
" .& ....@@o#oooooo& @#@@@@@@@@@@$#@ooooo@#%@%@%&    @@#@@@&  .&#",
"#X& XX@oooo#oooooo& @@@@@@#@@@@+$$@@@@@@@#%%%%%.......#...&  . #",
"#X &X@o& oo#oooooo& XXXXXX#++++++#+++++..#..$.............&  + #",
"#X   @o& oo#oo& +X& XXXXXX##++...#.......#..$.............&# + #",
" #X #@&  ooooo& XX&#X  XXXX..............#..$XX#XX....++++& #+ #",
" #+  &   ooooo&#XX&#X  X$..........XXXXXX#XXX$X#XX++++++++& #+ #",
"  #      ooooo&$XX&#   .$.......XX& XXXXX  XXXX#XX+++++$++& #+ #",
"         ooooo&$#  #  ..$.......XX &XXXX&  XXXXXXX##XXX$++& # # ",
"       $ oooo..$# ##  oo$oXX#X   X &XXXX& XXXXXXXXX#ooooo+  ##  ",
"+   ooo$oooo...$###  .oooooo#o & X#&  X&  XX@$@oooooo$ooo@##    ",
"ooooooo$ooo...  $#   +ooOoooooo&& #&##X& #XX@$@oooooo$ooo@      ",
"ooooooo$o++      #oo++oOOOoooooo& #& # & #++@@@oooooo$ooo@@+++++",
"oooo#oo$+++      ooo+++OOOoo#ooo& #&+#& #+++@@@oooooo$o@@@@$+++#",
"oooo#+++++++++o  ooo++++#++o#oooo #& #& #.......++#++++++++$+++#",
"+++++#++++++++oooooo#++@#@@#+ooo  #  #  #  .......#...#....$+++#",
"+++++#XXXX++o%o%o%oo#ooo#oo#oooo  #  ## #  XXX....#...#.....++++",
"......XXXX++o%%%%%oooooo#oo#oo#o  ####     XXXXXX.#...#.....++++",
"......XXXX  ooo#ooo$oooooooooo#o ##     $  X#XXXXXXXX.......++++",
".XX$XXXXX&  ooo#ooo$oo#oooooooo#oo#    X$XXX#XXXXXX$XXXXX+++++++",
".X#$XXX..&  +#@#@@@$@@#oooooooo#oooo@@@+$++X#XXXXXX$XXXXX+++#+++",
"+X$#XXX..&  #++++ooooo#ooooo$oo#oooo@@@+$ooo#+XXXXXXXXXXX++#++++",
"+X$#XXX#+&& #oooo& ooo#ooooo$oo#oooo@@@+oooo#+++++XXXXXXoooooo++",
"++XX#Xo#oo& #ooo&# ooooooo  $ooooo@@@@@+oooooooooo++++++oooooo++",
"++++++o#oo& #ooo&#oo #ooo.# .....++#+++#ooooooooooo  oo$oooooo#+",
"++++++#ooo&  #o &#oo #...&# .......#..++# oooooo& o&#oo$oooooo#+",
"++++@@#oooo&  #& #++&#...&#.........#...&# ooooo& o&#oo$$o++++#+",
"++++@#@oooo&  #& #++& #+X&#XX.......#....&#.. &&# o&#ooo$#++++#+",
"@@@@@#@@$ooo& #  #oo+&#+ &#XXXX.#..@#@@..& #.   #..&#ooo$ ++++#+",
"@@@@@@@@$@@o& #  #oo+&#+&#XXXXXX#++@#@@@.&  #   #..# .. # ++++++",
"@@@@@@@@$@@@&  # ooo+& #&#XXX$XX#XX@#@@@@o& #  ##.&# . # ....+++",
"@@#@@@@.@@@@@@ ####o@& #  XXX$XXX#X@#@@@@oo& # #..&# .# ........",
"..#.......++@@ #@@@#####   +XX$XX#XX@@@@@oo& #  @@&#.#  ....#...",
".&#XXX& XX+++    @@    ### +++$XX#XXX@@@@# && # o&##### ...#....",
".&#XX&  XX++O    @@        #++++XXXXXXX@@o# &   ####   @@+.#.O..",
"+ #X#&  XXoOOO   ++       #++++++++XXXXXXX#o     &      @@@@OOO+",
"+ & #& XXXoOOO   ooo+++...#....#.+++$XXXXXXo            $@@@OOO+",
"++ & #  @+oo$ooooooo+++........#..++$++XXXXXX#ooooo#o@@@$@@@+$++",
"+++&  # @@oo$ooooooo+++.........#.++$#+++XXX#XXXooo#oX@@@@@@+$++",
"+++ & # @@@@$& #oo&# ++& .XXXX..#.+++#+$+++X#XXXXXX#XXXXXX...$++",
"+++  & #@@@@$& #++&# +&& #XXXX....++##++$++##XXXXX#XXXXXX...&$++",
"+++  &  #@@@@&&# +&# +& #XXXXX++++++++++$++#+++XXXXXXXXX&...&+++",
"++++++++++++++  #+ #+& #XXXXXX++++++++++++++++++++XXXXXXX&..&+++"
};
