/* XPM */
static char *_17366d360f1427b8b7fd8a61167cd42xPE87OTVtlu1hEoK[] = {
/* columns rows colors chars-per-pixel */
"64 64 17 1 ",
"  c None",
". c #143326",
"X c #262222",
"o c #322020",
"O c #372828",
"+ c #481919",
"@ c #462E2E",
"# c #463939",
"$ c #2E463C",
"% c #4E6B5F",
"& c #8E7C7C",
"* c #BBA9A9",
"= c #D59091",
"- c #CFA5A5",
"; c #D6A3A3",
": c #E0B2B3",
"> c #D5C5C5",
/* pixels */
"                                                                ",
"                                                                ",
"                                                                ",
"                                                                ",
"                                                                ",
"                                                                ",
"                                                                ",
"                                                                ",
"                      ooOO####OO##                              ",
"                      ooOO####OO##                              ",
"                    ooOOoo@@##@@##&&                            ",
"                    ooOOoo@@##@@##&&                            ",
"                    ooOO@@@@@@@@######                          ",
"                    ooOO@@@@@@@@######                          ",
"                      oo@@##@@@@@@@@##                          ",
"                      oo@@##@@@@@@@@##                          ",
"                      OO@@@@XX--------                          ",
"                      OO@@@XXX--------                          ",
"                      OOOOXXX-%$---%$::                         ",
"                      OOOO@X--..;;:..::                         ",
"                        oo@@-::::;:::::                         ",
"                        oo@@-########::                         ",
"                          OO@@####OOO                           ",
"                          OO@@####OO                            ",
"                        OOoooo@@@@@@&&                          ",
"                        OOoooo@@@@@@&&                          ",
"                        oo@@&&@@@@OO##                          ",
"                        oo@@&&@@@@OO##                          ",
"                        OO@@##@@@@@@@@                          ",
"                        OO@@##@@@@@@@@                          ",
"                        OO@@@@##@@OO@@                          ",
"                        OO@@@@##@@OO@@                          ",
"                        &&####==@@##@@                          ",
"                        &&####==@@##@@                          ",
"                        &&**====>>>>>>                          ",
"                        &&**====>>>>>>                          ",
"                        **>>>>>>>>**>>                          ",
"                        **>>>>>>>>**>>                          ",
"                          &&>>>>**&&**>>                        ",
"                          &&>>>>**&&**>>                        ",
"                        ++&&>>    &&****++                      ",
"                        ++&&>>    &&****++                      ",
"                        ++++        ++++                        ",
"                        ++++        ++++                        ",
"                                                                ",
"                                                                ",
"                                                                ",
"                                                                ",
"                                                                ",
"                                                                ",
"                                                                ",
"                                                                ",
"                                                                ",
"                                                                ",
"                                                                ",
"                                                                ",
"                                                                ",
"                                                                ",
"                                                                ",
"                                                                ",
"                                                                ",
"                                                                ",
"                                                                ",
"                                                                "
};
