/* XPM */
static char *result[] = {
/* columns rows colors chars-per-pixel */
"64 64 19 1 ",
"  c #1F2A1F",
". c #2C2216",
"X c #3E2E1B",
"o c #2C2721",
"O c #42372A",
"+ c #304B30",
"@ c #395938",
"# c #3F593F",
"$ c #554838",
"% c #665239",
"& c #544B40",
"* c #695E50",
"= c #4F6D4E",
"- c #526D52",
"; c #6D756D",
": c #8B6546",
"> c #816848",
", c #478B46",
"< c #8B8646",
/* pixels */
"=++++==,------;;, ; ,; =,====+++++++++===============; =  ,   ==",
"=++++==,--------;,  ,  ,=====++++,++++=,XXXXXXXX=====  ,= ,   ==",
"=++++==-------       ooooooooooo+,+OOOOOXXXXXXXX@@@@=  , ,,  ===",
"=+,++==--<---- oooooooooooooooooooooooooXXXXXXXX,@@@-  ,,,   --=",
"==,===  @<@@@ooooooo******************ooooooooooo@@@,,, ,    --=",
"==,===XXXXXXoo******************************ooooooo,,        --=",
"==:,==XXXXooo****************************>>****oooo--    ---,--=",
"=:::==XXXooo*****************************>>>>***oooO++++++++,+==",
"+:::++,;oooo*****************************>>>>>**oooX++<++++,++++",
"++<+++,oo**o*******************************>>>**ooXXO+<++++,++++",
"++<++,Ooo**oo*******************************>>**ooooooo#+++,++++",
"++<++#Ooo***o********$$$$$$$$$$$$$$$$***********oooo***oooXXX##+",
"===,=OOoo***o******$$$$$$$$$$$$$$$$$$$$$$*******ooo>>>**ooXXX<#=",
"===,...oo***o*****$$o$$*oo****o***o*$oo$$$******ooo>>>**ooXXX<#=",
"=--,...oo***o*****$o$**o*oooooooooo***ooo$******oo**>>**oo,####=",
"---,OO.oo***o*****oooooooo*****ooooooooooo*****ooo******oo,==  -",
"---OOXXoo***o**oooo*****************oooooooooooooo******oo===  -",
"---OOXXoo**oooooo***************************oooooo******oo@@@; -",
"---OOXXoo**ooooo************************>>>>>**oooo*****oo@@@; -",
"+ %%%%%o***oo&&o************************>>>>>>****o*****oo@@@;  ",
"+;%%%%%o***oo&o****************************>>>*****oo***ooO@@-; ",
"++XXX..o***oooo*************************************o***oo...-; ",
" +XXX..o***oooo*************************************oo**oo...+;,",
",#; O..o***oooo*******o$$$$oo$$$$o$$o$$*o***********oo**ooOO + %",
",# ;O.oo****oo*******o$$$$o$$ooooooooo$$oo**********oo***o%%%%%%",
"......oo*****o*******$o$oooooooooooooooooooooooo*****o***o%%%%%%",
"......oo*****o***ooooooooooo***************oooooooooooo**o.OOO ,",
" ,= OOoooooooooooo*oo*************************ooooooooo**o.OOO ,",
"  , OOooooooooo***************************>>>>>>>*****o**o..OO ,",
"    OOooo*****o***************************>>>>>>>>****o**o..OOO ",
"    OOooo*****o****************************>>>>>>>***ooooo..OOO ",
"=   OOoo******o**************************************ooooo.XXXO ",
"@@@@@OOo*******oo************************************oo*oooXXXO ",
"XXXXXXXo*******oo***********************************oo>>oooXXXO=",
"XXXXXXXo********o***********************************oo>>>oo%XXO,",
"@@@@,=Oo********o***********************************oo>>>oooXXO,",
"=====,Oo********o********o$$$oo$$$o$$o$$o***********oo*>>XooXXO,",
"=====,Oo********o*****$$o$$$o$$o$$oo$o$$oo$$*******ooo***.ooXXO=",
"++++++Oo**************$$$o**o*oo**o*oo*$o$o$*******ooo***.ooXXO=",
"++++++Ooo******o**ooooooooooooooooooooooooooo******ooo***.ooXXO=",
"+##<##Ooo*****o**ooooo*******************ooooooooo*ooo***.ooXXO=",
"+#,<###oo****oo*oo*********************>>>>>>**oooo*o****.ooOO==",
"=#<,###oo****oooo**********************>>>>>>>>*ooooo****oooOO==",
"=#<,X%%oo****oooo**********************>>**>>>>**oooo****oooOO==",
"==##X%%%o****ooo*****************************>>***oooo***oooO@==",
"====XXXXo***oooo***********************************ooo***oooO@,=",
"======XXo***oooo***********************************oo***.oooO@,=",
"====--,@o****oo************************************oo***oooO==,=",
"====-,-@o***ooo***********o**ooo**o**o**o**********oo***oooO==,=",
"-----,--o***oo***********oo$$o$o$$oo$o$o$o*********oo***oooO==,=",
"--------o***oo**********$o$$$oo$o$o$o$$o$o$$$$*****o****ooo=====",
"----XXXXo***oo*******$$$$$oo$o*********oo$$$$$*****o****ooo++===",
"--,-XXXXo**ooo******$$$$$**o**oooooooo*************o****ooo+++++",
"++,+XXXXoo*oo*******$$ooooooooooooooooooooooooooooo*****oo.+,+++",
"+;,###; oo*ooo$oooooooooooooo******ooooooooooooo*******.oo.,++++",
"+;,##;  oo*oooooooooooooo***************ooo************Ooo+,+:++",
"= ,#,;  oo***$$$$$$**$$oo****$$$$$$$$***ooo************Ooo--:::=",
"= ; ,; #oo**$$$$$$$oo**oo**$$$$$$$$$$****oo*****$$$$$$*ooo--:::=",
"== ; ,  -ooo$$$oooooooooo**$$$oo...$$****ooo*oo$$$$$$$ooo---=<==",
"===;  , oooooo@@@@@ooooooooooooo....ooooooooooo$$$ooooooo---=<==",
"=== ; , ooo-<; ,@@;,...oooooooooXXXOOoooooooooO.oooooooo##+++<==",
"===  ; ,----<; ,==;, =;; ,#ooo%%XXXXXoooo%%%OOO.......###+++;<==",
"===  ;  ,----;;, =;, =; ,###XXXXXXXXX%%%<==,===#########;+++;===",
"==============  ,= ,=; ,######===XXXX=============#######;++;==="
};
